<svg width="25" height="22" viewBox="0 0 25 22" fill="none" xmlns="http://www.w3.org/2000/svg">
<path d="M19.2951 19.4673L15.5927 13.0969L22.5463 10.0042C23.0093 9.7982 23.2451 9.27839 23.095 8.79431C22.9449 8.31024 22.4564 8.01499 21.9581 8.10714L14.3602 9.51196L13.4204 2.23855C13.356 1.73995 12.9314 1.3667 12.4286 1.3667C11.9259 1.3667 11.5013 1.73995 11.4369 2.23855L10.4971 9.51196L2.89923 8.10714C2.40087 8.01499 1.91237 8.31024 1.76227 8.79431C1.61218 9.27839 1.84795 9.7982 2.31102 10.0042L9.26459 13.0969L5.56219 19.4673C5.30875 19.9033 5.41972 20.4599 5.82104 20.7654C6.22236 21.0709 6.78838 21.0298 7.14127 20.6694L12.4286 15.2698L17.716 20.6694C18.0689 21.0298 18.6349 21.0709 19.0363 20.7654C19.4376 20.4599 19.5486 19.9033 19.2951 19.4673Z" fill="#09BC8A" stroke="#09BC8A" stroke-width="2" stroke-linecap="round" stroke-linejoin="round"/>
</svg>
