<svg width="21" height="30" viewBox="0 0 21 30" fill="none" xmlns="http://www.w3.org/2000/svg">
<path d="M2.32473 14.4233L3.72984 13.8982C3.71758 13.8654 3.70418 13.8331 3.68965 13.8012L2.32473 14.4233ZM2.40521 14.6144L1.04773 15.2525L1.04774 15.2525L2.40521 14.6144ZM8.25771 27.0636L6.90023 27.7018L8.25771 27.0636ZM10.5239 28.5L10.5217 27H10.5217L10.5239 28.5ZM12.7858 27.0568L14.1452 27.6908V27.6908L12.7858 27.0568ZM18.7089 14.358L17.3495 13.724L18.7089 14.358ZM18.7977 14.1423L17.4127 13.5663C17.4031 13.5894 17.3941 13.6126 17.3857 13.6361L18.7977 14.1423ZM10.6906 19.7204L12.05 20.3544C12.269 19.8848 12.2302 19.3354 11.9472 18.9013C11.6643 18.4672 11.1773 18.2099 10.6592 18.2207L10.6906 19.7204ZM10.3307 19.7208L10.3586 18.2211C9.84032 18.2114 9.35381 18.4701 9.07192 18.9051C8.79003 19.3401 8.75273 19.8899 8.97326 20.359L10.3307 19.7208ZM10.5113 20.1048L9.1538 20.743C9.40144 21.2698 9.93147 21.6057 10.5135 21.6048C11.0956 21.6039 11.6246 21.2664 11.8707 20.7389L10.5113 20.1048ZM10.5 5C7.48279 5 5 7.49165 5 10.6112H8C8 9.10934 9.17854 8 10.5 8V5ZM16 10.6112C16 7.49165 13.5172 5 10.5 5V8C11.8215 8 13 9.10934 13 10.6112H16ZM10.5 16.2224C13.5172 16.2224 16 13.7307 16 10.6112H13C13 12.113 11.8215 13.2224 10.5 13.2224V16.2224ZM5 10.6112C5 13.7307 7.48279 16.2224 10.5 16.2224V13.2224C9.17854 13.2224 8 12.113 8 10.6112H5ZM3 10.6112C3 6.42168 6.34393 3 10.5 3V0C4.63534 0 0 4.81704 0 10.6112H3ZM3.68965 13.8012C3.24695 12.8298 3 11.7492 3 10.6112H0C0 12.187 0.342626 13.6912 0.959811 15.0454L3.68965 13.8012ZM3.76269 13.9762C3.75045 13.9502 3.73952 13.9241 3.72984 13.8982L0.919624 14.9483C0.957925 15.0508 1.00062 15.1523 1.04773 15.2525L3.76269 13.9762ZM9.61519 26.4254L3.76269 13.9762L1.04774 15.2525L6.90023 27.7018L9.61519 26.4254ZM10.5217 27C10.1336 27.0006 9.78028 26.7766 9.61519 26.4254L6.90023 27.7018C7.5606 29.1065 8.97401 30.0023 10.5262 30L10.5217 27ZM11.4264 26.4227C11.2624 26.7744 10.9097 26.9994 10.5217 27L10.5262 30C12.0784 29.9977 13.4891 29.0975 14.1452 27.6908L11.4264 26.4227ZM17.3495 13.724L11.4264 26.4227L14.1452 27.6908L20.0683 14.9921L17.3495 13.724ZM17.3857 13.6361C17.3752 13.6653 17.3632 13.6946 17.3495 13.724L20.0683 14.9921C20.121 14.8791 20.1681 14.7644 20.2096 14.6486L17.3857 13.6361ZM18 10.6112C18 11.6585 17.7909 12.657 17.4127 13.5663L20.1827 14.7183C20.71 13.4505 21 12.061 21 10.6112H18ZM10.5 3C14.6561 3 18 6.42168 18 10.6112H21C21 4.81704 16.3647 0 10.5 0V3ZM10.6592 18.2207C10.6063 18.2218 10.5532 18.2224 10.5 18.2224V21.2224C10.5741 21.2224 10.6481 21.2216 10.7219 21.2201L10.6592 18.2207ZM10.5 18.2224C10.4527 18.2224 10.4056 18.2219 10.3586 18.2211L10.3029 21.2205C10.3685 21.2218 10.4342 21.2224 10.5 21.2224V18.2224ZM8.97326 20.359L9.1538 20.743L11.8688 19.4667L11.6882 19.0826L8.97326 20.359ZM11.8707 20.7389L12.05 20.3544L9.33119 19.0863L9.15188 19.4708L11.8707 20.7389Z" fill="#09BC8A"/>
<circle cx="11" cy="11" r="2" fill="#09BC8A"/>
</svg>
