<svg width="30" height="30" viewBox="0 0 30 30" fill="none" xmlns="http://www.w3.org/2000/svg">
<path fill-rule="evenodd" clip-rule="evenodd" d="M29.9413 5.47714C28.835 5.97568 27.6538 6.3153 26.4102 6.47037C27.6776 5.68732 28.6526 4.45315 29.1138 2.9806C27.9251 3.69188 26.6076 4.20964 25.2052 4.498C24.0852 3.26895 22.4891 2.5 20.7166 2.5C17.3205 2.5 14.5669 5.32335 14.5669 8.80158C14.5669 9.3014 14.6231 9.782 14.7256 10.2421C9.61335 9.99475 5.08229 7.4777 2.04991 3.67266C1.51619 4.59796 1.21745 5.67322 1.21745 6.84459C1.21745 9.03612 2.3049 10.9623 3.95234 12.094C2.94363 12.0607 1.99492 11.7762 1.16745 11.3045V11.3827C1.16745 14.4393 3.28361 16.9884 6.09975 17.5689C5.58352 17.7112 5.03854 17.7881 4.47981 17.7881C4.08733 17.7881 3.7111 17.7497 3.33486 17.6779C4.12358 20.1808 6.39098 22.0058 9.08962 22.0571C6.98971 23.7475 4.32857 24.7548 1.46244 24.7548C0.974959 24.7548 0.48873 24.7254 0 24.669C2.73614 26.4555 5.95975 27.5 9.44586 27.5C20.7629 27.5 26.9439 17.8932 26.9439 9.57566C26.9439 9.30781 26.9439 9.0374 26.9251 8.76826C28.1263 7.88525 29.175 6.76898 30 5.50277L29.9413 5.47714Z" fill="#09BC8A"/>
</svg>
